# xmcd
#
# Track frame offsets: 
#        150
#        17925
#        37720
#        58860
#
# Disc length: 1021 seconds
#
# Revision: 2
# Processed by: cddbd v1.5.2PL0 Copyright (c) Steve Scherf et al.
# Submitted via: ExactAudioCopy v1.0b3
#
DISCID=2a03fb04
DTITLE=Shania Twain - Man! I Feel Like A Woman cds
DYEAR=1999
DGENRE=Pop
TTITLE0=Man! I Feel Like A Woman!
TTITLE1=Black Eyes, Blue Tears (Live)
TTITLE2=That Don't Impress Me Much (India Mix)
TTITLE3=Man! I Feel Like A Woman! (Alternate Version)
EXTD=
EXTT0=
EXTT1=
EXTT2=
EXTT3=
PLAYORDER=
